<svg xmlns="http://www.w3.org/2000/svg" viewBox="0 0 512 513">
<path d="M 340.900 10.300 c 339.000 11.600 335.200 14.300 332.300 16.400 329.000 18.800 322.500 21.700 314.300 24.500 292.200 32.100 260.800 43.700 258.100 45.500 256.700 46.300 240.800 52.000 216.000 60.400 194.100 67.900 165.700 81.400 167.700 83.400 168.100 83.800 167.800 83.900 167.000 83.600 166.100 83.300 162.500 85.300 158.500 88.400 154.700 91.400 149.300 95.400 146.500 97.300 143.800 99.300 139.500 102.900 137.100 105.300 133.600 109.000 132.900 110.300 133.400 112.300 133.700 113.700 134.800 115.000 135.700 115.200 136.900 115.400 135.500 117.600 129.900 123.800 125.800 128.400 122.600 132.600 122.800 133.100 122.900 133.600 122.600 133.900 122.200 133.800 121.000 133.400 115.800 139.700 110.200 148.500 104.800 157.000 99.500 170.800 100.300 174.000 100.600 175.100 100.400 175.800 99.900 175.400 98.000 174.300 99.000 188.900 101.100 195.200 102.300 198.700 103.600 201.700 103.900 202.000 104.700 202.700 105.000 205.700 105.600 219.000 106.000 230.300 106.100 230.500 109.300 233.800 111.000 235.600 114.600 238.700 117.200 240.700 119.700 242.700 122.600 245.900 123.500 247.900 125.900 253.300 128.000 254.200 140.900 255.000 149.800 255.500 154.100 256.300 159.400 258.300 163.100 259.800 166.600 260.700 167.100 260.400 167.600 260.100 168.000 260.400 168.000 261.000 168.000 261.700 168.700 262.000 169.500 261.600 170.300 261.300 171.000 261.400 171.000 261.800 171.000 263.100 183.800 267.300 186.000 266.700 187.100 266.400 187.800 266.500 187.500 267.000 187.300 267.400 189.200 268.000 191.800 268.300 201.200 269.500 206.700 271.900 212.700 277.300 218.600 282.600 224.000 286.600 224.000 285.400 224.000 285.100 225.100 286.200 226.500 287.800 227.800 289.400 231.300 291.900 234.200 293.300 248.600 300.300 276.200 322.200 277.600 327.500 278.600 331.500 271.600 338.400 256.500 348.300 252.700 350.900 249.000 353.300 248.500 353.700 247.900 354.100 245.300 355.600 242.700 357.000 240.100 358.300 238.000 359.800 238.000 360.200 238.000 360.700 237.600 360.900 237.100 360.700 236.300 360.500 225.300 366.600 224.000 368.000 223.700 368.300 223.100 368.600 222.500 368.700 222.000 368.800 216.100 371.700 209.500 375.200 202.800 378.700 192.700 383.800 187.000 386.500 181.200 389.300 176.400 391.800 176.200 392.200 176.000 392.600 175.300 392.700 174.600 392.400 173.800 392.100 172.600 392.500 171.900 393.200 171.100 393.900 169.800 394.600 169.100 394.800 168.300 395.000 165.200 395.800 162.100 396.600 148.100 400.200 147.400 396.900 160.000 385.500 171.600 375.100 183.900 363.000 184.900 361.200 185.400 360.200 185.800 357.900 185.700 356.000 185.500 352.800 185.300 352.500 182.400 352.600 179.100 352.800 174.300 355.800 156.000 369.400 150.500 373.500 142.400 379.000 138.100 381.600 133.700 384.300 130.400 386.800 130.600 387.200 130.900 387.700 130.800 387.900 130.300 387.800 127.200 386.800 82.000 423.100 76.500 431.000 72.800 436.400 72.700 442.200 76.300 453.500 77.700 457.900 79.200 463.300 79.600 465.500 80.500 470.900 83.000 476.100 84.300 475.300 84.900 475.000 85.000 475.200 84.600 475.800 83.900 477.000 92.000 487.500 93.800 487.500 94.500 487.500 95.000 487.900 95.100 488.500 95.300 491.100 107.100 499.700 108.900 498.600 109.400 498.300 110.000 498.500 110.200 499.200 110.400 499.800 112.700 500.400 115.600 500.400 122.300 500.500 127.800 497.600 137.500 488.900 144.000 483.100 155.600 473.500 167.100 464.700 167.900 464.000 170.800 462.400 173.400 461.000 176.000 459.600 178.900 457.800 179.900 457.000 180.800 456.200 182.500 455.000 183.600 454.300 184.600 453.600 188.800 451.000 192.800 448.500 196.800 446.000 200.600 443.500 201.300 442.900 202.000 442.400 211.800 434.900 223.300 426.400 236.100 416.800 244.000 410.200 244.000 409.100 244.000 408.200 243.400 406.800 242.800 406.100 241.700 405.100 242.000 404.500 244.000 402.900 245.400 401.800 247.400 400.100 248.600 399.200 249.700 398.300 251.300 397.400 252.100 397.200 252.900 397.000 254.200 396.300 255.000 395.500 255.800 394.800 261.200 391.600 267.000 388.400 272.800 385.200 277.800 382.200 278.100 381.700 278.400 381.200 279.000 380.900 279.400 381.000 280.700 381.400 286.000 378.800 286.000 377.800 286.000 377.300 286.400 377.100 286.900 377.500 287.400 377.800 288.400 377.500 289.200 376.800 289.900 376.100 291.200 375.400 292.000 375.200 295.000 374.500 315.500 364.800 316.200 363.700 316.600 363.000 317.000 362.900 317.000 363.500 317.000 364.000 317.700 363.700 318.400 362.700 319.200 361.700 320.000 361.000 320.300 361.200 320.600 361.400 323.800 359.600 327.400 357.300 336.300 351.600 338.000 348.600 337.900 339.000 337.700 331.800 334.300 314.400 331.900 308.400 331.200 306.800 330.500 304.600 330.300 303.500 329.000 296.400 326.700 291.000 323.500 287.700 320.000 284.100 308.000 277.200 308.000 278.700 308.000 279.200 307.600 279.000 307.200 278.500 306.500 277.500 291.800 271.200 288.900 270.600 288.100 270.400 286.800 270.100 286.000 269.800 273.900 265.300 266.100 263.000 248.000 258.400 236.200 255.400 225.700 252.700 224.800 252.400 223.600 252.100 223.000 250.900 223.000 249.100 223.000 246.100 218.700 241.700 211.500 237.300 209.300 235.900 205.600 233.500 203.400 231.900 201.100 230.400 199.000 229.400 198.600 229.700 198.300 230.000 198.000 229.900 198.000 229.300 198.000 228.700 193.200 225.400 187.300 222.000 181.300 218.500 171.400 212.600 165.200 208.800 159.000 205.100 153.700 202.000 153.500 202.000 153.200 202.000 152.100 201.200 150.900 200.200 149.800 199.300 147.900 197.700 146.700 196.700 138.700 190.100 132.200 182.600 131.100 178.900 129.900 174.900 130.000 174.400 133.400 167.600 137.200 159.900 147.300 147.200 151.500 145.000 155.400 142.900 156.100 144.600 154.200 151.700 151.000 163.700 156.200 162.600 171.600 147.800 176.900 142.700 182.100 137.800 183.000 136.900 184.000 136.000 189.000 132.200 194.100 128.500 210.900 116.500 230.700 106.300 248.500 100.600 260.800 96.700 291.400 90.000 296.700 90.000 311.700 90.100 322.900 93.700 326.700 99.800 327.600 101.300 330.900 105.600 333.900 109.300 l 339.400 116.200 337.500 119.700 c 336.400 121.700 334.200 124.700 332.500 126.500 330.900 128.300 327.700 132.100 325.500 135.000 321.200 140.700 320.500 141.500 314.500 148.600 304.200 160.700 291.100 177.600 291.000 178.700 291.000 179.400 290.600 180.000 290.200 180.000 289.400 180.000 281.000 191.400 281.000 192.400 281.000 192.700 279.900 194.100 278.600 195.500 275.600 198.800 272.700 204.700 273.500 206.000 274.400 207.500 279.900 207.200 285.800 205.500 288.700 204.600 291.500 204.200 292.000 204.500 293.200 205.200 296.700 201.700 302.900 193.700 305.300 190.600 307.800 188.000 308.400 188.000 309.800 188.000 319.300 179.900 330.000 169.500 338.400 161.400 352.700 148.300 361.800 140.500 364.400 138.300 368.100 134.900 370.200 132.900 372.200 130.900 374.100 129.400 374.300 129.700 374.600 129.900 375.700 128.900 376.900 127.400 378.000 125.900 379.000 125.000 379.000 125.400 379.000 125.900 385.100 121.600 390.100 117.600 391.400 116.500 392.100 116.600 394.100 118.200 397.100 120.700 401.700 120.100 406.200 116.700 411.400 112.900 423.800 107.200 428.500 106.400 434.700 105.500 437.500 102.200 437.500 96.000 437.500 92.000 437.000 90.600 434.700 88.200 432.400 85.800 431.700 83.900 430.900 77.900 430.400 73.800 429.800 69.300 429.400 67.800 428.800 64.700 418.600 52.800 417.400 53.800 417.000 54.200 417.000 54.000 417.400 53.300 418.300 51.700 414.500 44.400 412.200 43.100 408.600 41.200 396.400 41.200 397.600 43.200 398.000 43.900 397.900 44.000 397.100 43.600 395.600 42.600 389.500 46.400 387.000 50.000 384.800 53.000 382.100 59.800 381.500 64.000 380.800 68.300 379.200 74.100 378.600 74.700 378.300 75.100 378.000 71.700 378.000 67.300 378.000 62.600 377.300 57.400 376.300 54.400 374.300 48.400 363.900 31.900 362.600 32.700 362.100 33.000 362.000 32.800 362.400 32.100 362.800 31.500 362.700 30.400 362.200 29.700 361.600 29.000 360.500 26.200 359.700 23.300 355.500 9.300 349.000 4.800 340.900 10.300 z m 140.000 113.400 c 140.000 113.700 139.600 114.200 139.000 114.500 138.500 114.800 138.000 114.600 138.000 114.100 138.000 113.500 138.500 113.000 139.000 113.000 139.600 113.000 140.000 113.200 140.000 113.400 z" fill="#000000"/>
</svg>
