<svg xmlns="http://www.w3.org/2000/svg" viewBox="0 0 512 513">
<path d="M3409 5027 c-19 -13 -57 -40 -86 -61 -33 -24 -98 -53 -180 -81 -221
-76 -535 -192 -562 -210 -14 -8 -173 -65 -421 -149 -219 -75 -503 -210 -483
-230 4 -4 1 -5 -7 -2 -9 3 -45 -17 -85 -48 -38 -30 -92 -70 -120 -89 -27 -20
-70 -56 -94 -80 -35 -37 -42 -50 -37 -70 3 -14 14 -27 23 -29 12 -2 -2 -24
-58 -86 -41 -46 -73 -88 -71 -93 1 -5 -2 -8 -6 -7 -12 4 -64 -59 -120 -147
-54 -85 -107 -223 -99 -255 3 -11 1 -18 -4 -14 -19 11 -9 -135 12 -198 12 -35
25 -65 28 -68 8 -7 11 -37 17 -170 4 -113 5 -115 37 -148 17 -18 53 -49 79
-69 25 -20 54 -52 63 -72 24 -54 45 -63 174 -71 89 -5 132 -13 185 -33 37 -15
72 -24 77 -21 5 3 9 0 9 -6 0 -7 7 -10 15 -6 8 3 15 2 15 -2 0 -13 128 -55
150 -49 11 3 18 2 15 -3 -2 -4 17 -10 43 -13 94 -12 149 -36 209 -90 59 -53
113 -93 113 -81 0 3 11 -8 25 -24 13 -16 48 -41 77 -55 144 -70 420 -289 434
-342 10 -40 -60 -109 -211 -208 -38 -26 -75 -50 -80 -54 -6 -4 -32 -19 -58
-33 -26 -13 -47 -28 -47 -32 0 -5 -4 -7 -9 -5 -8 2 -118 -59 -131 -73 -3 -3
-9 -6 -15 -7 -5 -1 -64 -30 -130 -65 -67 -35 -168 -86 -225 -113 -58 -28 -106
-53 -108 -57 -2 -4 -9 -5 -16 -2 -8 3 -20 -1 -27 -8 -8 -7 -21 -14 -28 -16 -8
-2 -39 -10 -70 -18 -140 -36 -147 -3 -21 111 116 104 239 225 249 243 5 10 9
33 8 52 -2 32 -4 35 -33 34 -33 -2 -81 -32 -264 -168 -55 -41 -136 -96 -179
-122 -44 -27 -77 -52 -75 -56 3 -5 2 -7 -3 -6 -31 10 -483 -353 -538 -432 -37
-54 -38 -112 -2 -225 14 -44 29 -98 33 -120 9 -54 34 -106 47 -98 6 3 7 1 3
-5 -7 -12 74 -117 92 -117 7 0 12 -4 13 -10 2 -26 120 -112 138 -101 5 3 11 1
13 -6 2 -6 25 -12 54 -12 67 -1 122 28 219 115 65 58 181 154 296 242 8 7 37
23 63 37 26 14 55 32 65 40 9 8 26 20 37 27 10 7 52 33 92 58 40 25 78 50 85
56 7 5 105 80 220 165 128 96 207 162 207 173 0 9 -6 23 -12 30 -11 10 -8 16
12 32 14 11 34 28 46 37 11 9 27 18 35 20 8 2 21 9 29 17 8 7 62 39 120 71 58
32 108 62 111 67 3 5 9 8 13 7 13 -4 66 22 66 32 0 5 4 7 9 3 5 -3 15 0 23 7
7 7 20 14 28 16 30 7 235 104 242 115 4 7 8 8 8 2 0 -5 7 -2 14 8 8 10 16 17
19 15 3 -2 35 16 71 39 89 57 106 87 105 183 -2 72 -36 246 -60 306 -7 16 -14
38 -16 49 -13 71 -36 125 -68 158 -35 36 -155 105 -155 90 0 -5 -4 -3 -8 2 -7
10 -154 73 -183 79 -8 2 -21 5 -29 8 -121 45 -199 68 -380 114 -118 30 -223
57 -232 60 -12 3 -18 15 -18 33 0 30 -43 74 -115 118 -22 14 -59 38 -81 54
-23 15 -44 25 -48 22 -3 -3 -6 -2 -6 4 0 6 -48 39 -107 73 -60 35 -159 94
-221 132 -62 37 -115 68 -117 68 -3 0 -14 8 -26 18 -11 9 -30 25 -42 35 -80
66 -145 141 -156 178 -12 40 -11 45 23 113 38 77 139 204 181 226 39 21 46 4
27 -67 -32 -120 20 -109 174 39 53 51 105 100 114 109 10 9 60 47 111 84 168
120 366 222 544 279 123 39 429 106 482 106 150 -1 262 -37 300 -98 9 -15 42
-58 72 -95 l55 -69 -19 -35 c-11 -20 -33 -50 -50 -68 -16 -18 -48 -56 -70 -85
-43 -57 -50 -65 -110 -136 -103 -121 -234 -290 -235 -301 0 -7 -4 -13 -8 -13
-8 0 -92 -114 -92 -124 0 -3 -11 -17 -24 -31 -30 -33 -59 -92 -51 -105 9 -15
64 -12 123 5 29 9 57 13 62 10 12 -7 47 28 109 108 24 31 49 57 55 57 14 0
109 81 216 185 84 81 227 212 318 290 26 22 63 56 84 76 20 20 39 35 41 32 3
-2 14 8 26 23 11 15 21 24 21 20 0 -5 61 38 111 78 13 11 20 10 40 -6 30 -25
76 -19 121 15 52 38 176 95 223 103 62 9 90 42 90 104 0 40 -5 54 -28 78 -23
24 -30 43 -38 103 -5 41 -11 86 -15 101 -6 31 -108 150 -120 140 -4 -4 -4 -2
0 5 9 16 -29 89 -52 102 -36 19 -158 19 -146 -1 4 -7 3 -8 -5 -4 -15 10 -76
-28 -101 -64 -22 -30 -49 -98 -55 -140 -7 -43 -23 -101 -29 -107 -3 -4 -6 30
-6 74 0 47 -7 99 -17 129 -20 60 -124 225 -137 217 -5 -3 -6 -1 -2 6 4 6 3 17
-2 24 -6 7 -17 35 -25 64 -42 140 -107 185 -188 130z m-2009 -1031 c0 -3 -4
-8 -10 -11 -5 -3 -10 -1 -10 4 0 6 5 11 10 11 6 0 10 -2 10 -4z" fill="#000000"/>
</svg>
