<?xml version="1.0" standalone="no"?>
<!DOCTYPE svg PUBLIC "-//W3C//DTD SVG 20010904//EN"
 "http://www.w3.org/TR/2001/REC-SVG-20010904/DTD/svg10.dtd">
<svg version="1.0" xmlns="http://www.w3.org/2000/svg"
 width="512.000000pt" height="513.000000pt" viewBox="0 0 512.000000 513.000000"
 preserveAspectRatio="xMidYMid meet">

<g transform="translate(0.000000,513.000000) scale(0.100000,-0.100000)"
fill="#000000" stroke="none">
<path d="M2835 4298 c-38 -10 -115 -30 -170 -43 -125 -30 -294 -86 -328 -108
-15 -9 -29 -17 -32 -17 -16 0 -149 -68 -227 -117 -73 -45 -192 -141 -286 -230
-107 -101 -131 -123 -141 -123 -6 0 -11 -4 -11 -9 0 -5 -17 -12 -38 -16 -29
-5 -41 -13 -51 -36 -7 -16 -10 -36 -7 -45 9 -24 53 6 182 128 297 278 553 411
1019 530 110 28 147 33 240 32 188 -1 226 -20 358 -177 27 -31 51 -57 55 -57
4 0 13 9 20 20 11 18 9 26 -18 65 -17 25 -59 73 -93 107 -48 48 -76 67 -118
81 -128 42 -240 46 -354 15z"/>
<path d="M4124 4086 c-98 -50 -112 -54 -155 -49 -40 5 -55 1 -96 -22 -26 -16
-52 -34 -58 -40 -5 -6 -37 -34 -70 -61 -33 -27 -62 -51 -65 -54 -3 -3 -43 -39
-90 -80 -47 -41 -110 -98 -140 -126 -30 -28 -104 -97 -165 -154 -60 -56 -119
-106 -131 -112 -11 -5 -27 -26 -35 -46 -8 -20 -16 -41 -18 -45 -8 -21 40 17
114 89 238 228 588 531 670 580 43 25 48 26 57 11 16 -29 66 -20 147 27 84 49
137 71 192 80 48 8 68 30 40 45 -41 22 -88 12 -197 -43z"/>
<path d="M1355 4030 c-3 -5 -2 -10 4 -10 5 0 13 5 16 10 3 6 2 10 -4 10 -5 0
-13 -4 -16 -10z"/>
<path d="M1660 3886 c-45 -29 -199 -192 -224 -237 -14 -24 14 -2 97 76 113
106 187 186 170 184 -4 0 -24 -11 -43 -23z"/>
<path d="M1030 3448 c-6 -18 -14 -69 -17 -113 -5 -72 -2 -91 31 -194 31 -98
36 -128 36 -208 l0 -93 39 -43 c22 -23 57 -53 80 -67 29 -18 44 -36 53 -65 17
-53 44 -65 153 -65 99 0 144 -10 281 -64 50 -19 136 -45 190 -57 170 -37 215
-54 258 -99 21 -23 64 -58 95 -80 31 -21 63 -45 70 -54 7 -9 19 -16 25 -16 35
0 293 -187 398 -288 46 -45 48 -45 68 -27 26 24 26 25 -12 62 -105 101 -193
172 -298 238 -164 104 -251 165 -306 215 -58 53 -120 79 -279 115 -97 22 -145
35 -180 51 -113 48 -175 65 -265 70 -95 6 -154 19 -145 34 6 9 -89 110 -103
110 -5 0 -22 17 -38 37 -26 34 -29 46 -32 131 -2 66 -10 117 -29 175 -14 45
-28 89 -29 97 -10 43 -25 160 -25 193 -1 20 -3 37 -4 37 -2 0 -8 -15 -15 -32z"/>
<path d="M3074 3333 c-19 -20 -34 -42 -34 -48 0 -21 -79 -81 -132 -101 -10 -3
-18 -10 -18 -14 0 -10 -56 -30 -86 -30 -23 0 -54 -33 -54 -58 0 -17 59 -7 125
22 63 28 125 89 193 189 57 83 60 99 6 40z"/>
<path d="M3230 1614 c-50 -32 -173 -94 -187 -94 -6 0 -211 -97 -233 -111 -8
-5 -22 -12 -30 -15 -33 -15 -195 -109 -198 -116 -2 -5 -8 -8 -14 -8 -21 0 -73
-54 -79 -81 l-6 -29 31 19 c166 102 344 195 521 272 112 48 298 165 292 182
-7 23 -43 16 -97 -19z"/>
<path d="M1734 1453 c-127 -97 -170 -143 -133 -143 11 0 198 179 188 180 -3 0
-28 -17 -55 -37z"/>
<path d="M2300 983 c-28 -11 -144 -92 -190 -133 -19 -17 -18 -16 -121 -84
-243 -160 -296 -194 -319 -206 -14 -7 -29 -19 -35 -25 -5 -7 -41 -37 -80 -68
-38 -30 -86 -70 -105 -88 -19 -19 -55 -50 -80 -69 -25 -19 -47 -37 -50 -40 -3
-3 -18 -12 -35 -20 -16 -8 -33 -19 -37 -25 -4 -5 -34 -10 -66 -10 -66 0 -105
21 -191 105 -77 73 -103 120 -137 244 -44 164 -55 194 -71 201 -22 8 -33 -13
-26 -50 17 -96 79 -304 100 -339 37 -59 153 -170 215 -205 99 -57 161 -36 325
110 119 105 214 180 283 224 89 56 246 159 312 204 108 75 358 265 358 274 0
8 -28 8 -50 0z"/>
</g>
</svg>
